<svg width="167" height="81" viewBox="0 0 167 81" fill="none" xmlns="http://www.w3.org/2000/svg">
<path d="M1.94062 40.1693L61.5486 78.6921L164.906 78.5314L165.057 59.2852L111.64 1.95056H1.94062V40.1693ZM61.2642 80.6427C61.078 80.6427 60.8958 80.5885 60.7394 80.4877L0.445436 41.5217C0.167525 41.3426 0 41.0332 0 40.7017V0.975285C0 0.43675 0.434614 0 0.970092 0H112.061C112.329 0 112.586 0.111793 112.77 0.308848L166.738 58.2368C166.908 58.4195 167.002 58.6609 167 58.911L166.839 79.5131C166.835 80.048 166.402 80.4795 165.871 80.4801L61.2655 80.6427H61.2642Z" fill="#6E8FFD"/>
<path d="M63.1063 71.4386H68.2303V69.9732H63.1063V71.4386ZM63.1063 67.7543H70.4385V73.657H60.8987V64.0706H70.4385V66.2756H63.1063V67.7543Z" fill="#6E8FFD"/>
<path d="M80.9724 64.0706H83.1806V73.657H73.6409V71.4386H80.9724V69.9732H73.6409V64.0706H75.8484V67.7543H80.9724V64.0706Z" fill="#6E8FFD"/>
<path d="M89.6817 71.4381H94.0013V66.2752H90.8943L89.6817 67.973V71.4381ZM96.2095 71.3966H97.3003V75.8199H95.1054V73.6564H88.5914V75.8199H86.3834V71.3966H87.4873V67.0419L89.6272 64.0701H96.2095V71.3966Z" fill="#6E8FFD"/>
<path d="M107.834 64.0706H110.042V73.657H100.503V71.4386H107.834V69.9732H100.503V64.0706H102.71V67.7543H107.834V64.0706Z" fill="#6E8FFD"/>
<path d="M122.785 71.4381H123.889V75.8615H121.682V73.6564H113.245V64.0701H115.454V71.4381H116.911V64.0701H119.119V71.4381H120.577V64.0701H122.785V71.4381Z" fill="#6E8FFD"/>
<path d="M135.95 66.289H128.618V67.7539H135.95V69.9734H128.618V71.4387H135.95V73.6564H126.41V64.0701H135.95V66.289Z" fill="#6E8FFD"/>
<path d="M148.692 64.0706V66.2756H141.361V73.657H139.151V64.0706H148.692Z" fill="#6E8FFD"/>
<path d="M154.103 71.4386H159.227V66.2756H154.103V71.4386ZM151.894 64.0706H161.434V73.657H151.894V64.0706Z" fill="#6E8FFD"/>
<path d="M41.5919 7.50781V26.0299H33.2525L41.5919 37.5902H33.2952L24.9563 26.0299H18.5842V37.5902H11.6559V7.50781H18.5842V19.068H34.6641V7.50781H41.5919Z" fill="#6E8FFD"/>
<path d="M52.7952 30.6284H68.875V14.4266H52.7952V30.6284ZM45.8674 7.50781H75.8033V37.5902H45.8674V7.50781Z" fill="#6E8FFD"/>
<path d="M90.4289 30.6294H103.985V14.4275H94.2351L90.4289 19.7563V30.6294ZM110.914 30.5001H114.335V44.3812H107.45V37.5912H87.0077V44.3812H80.0793V30.5001H83.5438V16.834L90.2578 7.50879H110.914V30.5001Z" fill="#6E8FFD"/>
</svg>
