<svg width="108" height="53" viewBox="0 0 108 53" fill="none" xmlns="http://www.w3.org/2000/svg">
<path d="M1.25501 25.9778L39.8039 50.8907L106.646 50.7868L106.744 38.3401L72.1986 1.26144H1.25501V25.9778ZM39.62 52.1521C39.4996 52.1521 39.3817 52.1171 39.2806 52.0519L0.288066 26.8523C0.10834 26.7365 0 26.5364 0 26.3221V0.630723C0 0.282449 0.281068 0 0.627365 0H72.4705C72.6441 0 72.8103 0.0722976 72.9292 0.199734L107.831 37.6621C107.941 37.7803 108.002 37.9364 108 38.0982L107.896 51.4216C107.893 51.7676 107.614 52.0466 107.27 52.047L39.6208 52.1521H39.62Z" fill="white"/>
<path d="M40.8114 46.1998H44.1251V45.2522H40.8114V46.1998ZM40.8114 43.8172H45.5531V47.6345H39.3837V41.4349H45.5531V42.8609H40.8114V43.8172Z" fill="white"/>
<path d="M52.3655 41.4349H53.7935V47.6345H47.6241V46.1998H52.3655V45.2522H47.6241V41.4349H49.0518V43.8172H52.3655V41.4349Z" fill="white"/>
<path d="M57.9976 46.1994H60.7912V42.8605H58.7818L57.9976 43.9586V46.1994ZM62.2192 46.1726H62.9247V49.0332H61.5052V47.634H57.2926V49.0332H55.8646V46.1726H56.5786V43.3564L57.9624 41.4345H62.2192V46.1726Z" fill="white"/>
<path d="M69.7371 41.4349H71.165V47.6345H64.9957V46.1998H69.7371V45.2522H64.9957V41.4349H66.4233V43.8172H69.7371V41.4349Z" fill="white"/>
<path d="M79.4057 46.1994H80.12V49.0601H78.6923V47.634H73.2366V41.4345H74.6646V46.1994H75.6073V41.4345H77.0352V46.1994H77.9779V41.4345H79.4057V46.1994Z" fill="white"/>
<path d="M87.9199 42.8695H83.178V43.8168H87.9199V45.2522H83.178V46.1998H87.9199V47.634H81.7501V41.4345H87.9199V42.8695Z" fill="white"/>
<path d="M96.1599 41.4349V42.8609H91.4188V47.6345H89.9901V41.4349H96.1599Z" fill="white"/>
<path d="M99.6596 46.1998H102.973V42.8609H99.6596V46.1998ZM98.231 41.4349H104.401V47.6345H98.231V41.4349Z" fill="white"/>
<path d="M26.8978 4.85547V16.8338H21.5046L26.8978 24.3099H21.5323L16.1394 16.8338H12.0185V24.3099H7.53796V4.85547H12.0185V12.3315H22.4175V4.85547H26.8978Z" fill="white"/>
<path d="M34.143 19.8077H44.5419V9.32988H34.143V19.8077ZM29.6627 4.85547H49.0225V24.3099H29.6627V4.85547Z" fill="white"/>
<path d="M58.4809 19.8082H67.248V9.33033H60.9424L58.4809 12.7765V19.8082ZM71.7286 19.7246H73.9412V28.7015H69.4885V24.3104H56.2684V28.7015H51.7877V19.7246H54.0283V10.8866L58.3703 4.85593H71.7286V19.7246Z" fill="white"/>
</svg>
