<svg width="13" height="13" viewBox="0 0 13 13" fill="none" xmlns="http://www.w3.org/2000/svg">
<circle cx="6.5" cy="6.5" r="6.5" fill="#D9D9D9"/>
<path d="M2.79046 6.494C2.79046 6.296 2.84546 6.142 2.95546 6.032C3.0728 5.91467 3.2268 5.856 3.41746 5.856C3.61546 5.856 3.77313 5.91467 3.89046 6.032C4.0078 6.142 4.06646 6.296 4.06646 6.494C4.06646 6.68467 4.0078 6.83867 3.89046 6.956C3.77313 7.07333 3.61546 7.132 3.41746 7.132C3.2268 7.132 3.0728 7.07333 2.95546 6.956C2.84546 6.83867 2.79046 6.68467 2.79046 6.494ZM5.86273 6.494C5.86273 6.296 5.91773 6.142 6.02773 6.032C6.14506 5.91467 6.29906 5.856 6.48973 5.856C6.68773 5.856 6.8454 5.91467 6.96273 6.032C7.08006 6.142 7.13873 6.296 7.13873 6.494C7.13873 6.68467 7.08006 6.83867 6.96273 6.956C6.8454 7.07333 6.68773 7.132 6.48973 7.132C6.29906 7.132 6.14506 7.07333 6.02773 6.956C5.91773 6.83867 5.86273 6.68467 5.86273 6.494ZM8.935 6.494C8.935 6.296 8.99 6.142 9.1 6.032C9.21733 5.91467 9.37133 5.856 9.562 5.856C9.76 5.856 9.91766 5.91467 10.035 6.032C10.1523 6.142 10.211 6.296 10.211 6.494C10.211 6.68467 10.1523 6.83867 10.035 6.956C9.91766 7.07333 9.76 7.132 9.562 7.132C9.37133 7.132 9.21733 7.07333 9.1 6.956C8.99 6.83867 8.935 6.68467 8.935 6.494Z" fill="#696969"/>
</svg>
